<svg width="36" height="34" viewBox="0 0 36 34" fill="none" xmlns="http://www.w3.org/2000/svg">
<path d="M2.46054 0.160992C1.2371 0.573989 0.414448 1.45599 0.112105 2.66698C-0.169145 3.82197 0.154292 4.96997 1.01914 5.84496C1.46914 6.29996 1.86992 6.55896 2.4746 6.76896C2.8332 6.88796 3.45195 6.89496 17.9996 6.89496C32.5473 6.89496 33.166 6.88796 33.5246 6.76896C34.1293 6.55896 34.5301 6.29996 34.9801 5.84496C35.8449 4.96997 36.1683 3.82197 35.8871 2.66698C35.5848 1.44199 34.7058 0.51799 33.4754 0.139992C33.0394 -7.62939e-06 32.8074 -7.62939e-06 17.9715 -7.62939e-06L2.91757 0.00699234L2.46054 0.160992Z" fill="white"/>
<path d="M3.05192 12.7399C1.60349 12.9499 0.478486 13.9649 0.105829 15.3789C-0.351202 17.1079 0.752704 18.9559 2.56677 19.5089C2.96755 19.6279 3.63552 19.6349 18.0004 19.6349C32.3652 19.6349 33.0332 19.6279 33.434 19.5089C35.248 18.9559 36.3519 17.1079 35.8949 15.3789C35.5785 14.1679 34.6996 13.2439 33.4691 12.8309C33.0965 12.7119 32.4636 12.7049 18.2465 12.6979C10.0902 12.6909 3.2488 12.7119 3.05192 12.7399Z" fill="white"/>
<path d="M2.95383 25.4589C2.23664 25.5779 1.56867 25.9349 1.02023 26.4949C0.155391 27.3699 -0.168046 28.5179 0.113204 29.6729C0.415547 30.8979 1.29445 31.8218 2.52492 32.1998C2.96086 32.3398 3.19289 32.3398 18.0007 32.3398C32.8085 32.3398 33.0405 32.3398 33.4765 32.1998C34.707 31.8218 35.5859 30.8979 35.8882 29.6729C36.3101 27.9579 35.3538 26.2639 33.5679 25.5779C33.2374 25.4519 32.7241 25.4449 18.1765 25.4379C9.9007 25.4309 3.05227 25.4449 2.95383 25.4589Z" fill="white"/>
</svg>
