<?xml version="1.0" encoding="UTF-8"?>
<!DOCTYPE svg PUBLIC "-//W3C//DTD SVG 1.1//EN" "http://www.w3.org/Graphics/SVG/1.1/DTD/svg11.dtd">
<!-- Creator: CorelDRAW 2018 (64 Bit) -->
<svg xmlns="http://www.w3.org/2000/svg" xml:space="preserve" width="29.978mm" height="30mm" version="1.1" style="shape-rendering:geometricPrecision; text-rendering:geometricPrecision; image-rendering:optimizeQuality; fill-rule:evenodd; clip-rule:evenodd"
viewBox="0 0 2997.8 3000"
 xmlns:xlink="http://www.w3.org/1999/xlink">
 <defs>
  <style type="text/css">
   <![CDATA[
    .fil0 {fill:#E21D26}
    .fil1 {fill:#EC2029}
   ]]>
  </style>
 </defs>
 <g id="Camada_x0020_1">
  <metadata id="CorelCorpID_0Corel-Layer"/>
  <g id="_3019372681744">
   <path class="fil0" d="M1396.34 413c636.96,-66.51 1124,407.06 1191.48,959.29 77.6,635.23 -407.38,1161.73 -967.82,1218.57 -644.02,65.34 -1151.7,-406.9 -1208.43,-977.56 -63.99,-643.73 408.97,-1140.15 984.77,-1200.3zm1591.86 1278.43c94.39,-887.39 -519.29,-1571.61 -1281.23,-1676.54 -890.71,-122.71 -1601.98,531.04 -1695.09,1293.46 -108.6,889.23 542.02,1592.4 1308.13,1681.21 869.85,100.85 1587.92,-543.4 1668.19,-1298.13z"/>
   <path class="fil1" d="M1148.24 1497.32c-101.23,111.25 -486.1,352.06 -254.49,602.34 225.78,243.97 452.99,-138.91 603.62,-249.78 89.11,91.18 372.33,483.41 604.04,252.48 229.73,-228.94 -158.04,-520.72 -252.01,-602.8 156.79,-169 165.27,-175.69 241.67,-248.96 106.56,-102.2 113.52,-259.91 8.26,-356.46 -219.72,-201.5 -474.39,166.7 -580.67,259.4 -126.73,-74.66 -368.84,-501.64 -618.74,-252.88 -226.04,224.99 145.3,508.49 248.32,596.66z"/>
  </g>
 </g>
</svg>
