<svg width="29" height="26" viewBox="0 0 29 26" fill="none" xmlns="http://www.w3.org/2000/svg">
<path d="M19.7366 0.331662C19.393 0.667404 19.3792 0.734552 19.3792 2.34611C19.3792 3.7898 19.4204 4.05839 19.6541 4.34378C20.0527 4.8306 20.6712 4.78024 21.0285 4.22627C21.2896 3.80659 21.3171 3.58836 21.2759 2.19503C21.2347 0.784914 21.2072 0.583468 20.9048 0.298088C20.4925 -0.104802 20.1901 -0.104802 19.7366 0.331662Z" fill="white"/>
<path d="M16.0118 2.53074C15.627 2.79933 15.5308 3.00078 15.5308 3.58833C15.5308 4.32696 16.7952 5.85458 17.4 5.85458C17.936 5.85458 18.2796 5.40133 18.2796 4.71306C18.2796 4.10873 17.5511 2.98399 16.8914 2.56431C16.4379 2.27893 16.3692 2.27893 16.0118 2.53074Z" fill="white"/>
<path d="M23.0763 3.28619C22.1829 4.32699 22.0455 4.91454 22.5402 5.51887C23.035 6.12321 23.5161 5.95534 24.3682 4.86417C25.2341 3.75623 25.3165 3.35334 24.808 2.749C24.3132 2.12788 23.9834 2.2286 23.0763 3.28619Z" fill="white"/>
<path d="M0.590995 7.19724C0.0687204 7.44905 0 7.9023 0 10.7057C0 13.761 0.0549763 13.9289 1.04455 14.1471C1.81422 14.3318 2.309 14.7011 2.61137 15.3054C3.13365 16.3294 2.84502 17.857 2.02038 18.5117C1.84171 18.6628 1.4019 18.8475 1.04455 18.9314C0.0549763 19.1496 0.0137441 19.2839 0 22.4399C0 25.1259 0 25.1762 0.343602 25.5959L0.687204 25.9988L9.74455 25.9652C18.0735 25.9148 18.8431 25.8981 19.0493 25.6295C19.3654 25.2601 19.3517 24.404 19.0355 23.9843C18.7882 23.6486 18.637 23.6486 10.3493 23.6486H1.92417V22.4063V21.1641L2.68009 20.7276C3.47725 20.2408 3.97204 19.6365 4.42559 18.5621C4.76919 17.7227 4.89289 16.2455 4.68673 15.3222C4.37062 13.9121 3.27109 12.4348 2.28152 12.1326C1.93791 12.0319 1.92417 11.9816 1.92417 10.7057V9.37956H10.3493C18.2109 9.37956 18.8019 9.36278 19.0081 9.0774C19.4754 8.43949 19.3104 7.48262 18.6782 7.21403C18.1422 6.9958 1.04455 6.97901 0.590995 7.19724Z" fill="white"/>
<path d="M20.7123 7.36546C20.355 7.71799 20.3412 7.78514 20.3412 9.44706C20.3412 11.3944 20.4787 11.7301 21.2758 11.7301C21.8668 11.7301 22.2654 11.0754 22.2654 10.1185V9.37991H24.6706H27.0758V10.7061C27.0758 11.9819 27.0621 12.0323 26.7185 12.133C25.7289 12.4352 24.6294 13.9124 24.3133 15.3225C24.1071 16.2458 24.2308 17.7231 24.5744 18.5624C25.028 19.6368 25.5227 20.2412 26.3199 20.728L27.0758 21.1644V22.4067V23.6489H24.6706H22.2654V22.9103C22.2654 21.5338 21.3033 20.7951 20.6161 21.6345C20.3825 21.9199 20.3412 22.1885 20.3412 23.6321C20.3412 26.1166 20.1351 25.9991 24.6981 25.9991H28.3265L28.6564 25.5794C29 25.1766 29 25.1262 29 22.4403C28.9863 19.2843 28.945 19.15 27.9554 18.9318C27.5981 18.8478 27.1583 18.6632 26.9796 18.5121C26.155 17.8574 25.8663 16.3298 26.3886 15.3057C26.691 14.7014 27.1858 14.3321 27.9554 14.1474C28.9588 13.9292 29 13.7613 29 10.6557C29 8.20481 28.9725 7.86907 28.7389 7.51654L28.4777 7.11365L24.7806 7.06329C21.1934 7.01293 21.0697 7.02972 20.7123 7.36546Z" fill="white"/>
<path d="M6.12979 12.1498C5.70373 12.6702 5.7587 13.5599 6.23975 13.946C6.32221 14.0131 8.74117 14.0803 11.6274 14.0803C16.5203 14.0803 16.8777 14.0635 17.0838 13.7781C17.3862 13.3584 17.3724 12.5191 17.0701 12.1834C16.8364 11.9315 16.2592 11.898 11.5724 11.898C7.09188 11.898 6.30847 11.9315 6.12979 12.1498Z" fill="white"/>
<path d="M20.5749 13.3752C20.3825 13.6438 20.3412 14.1139 20.3412 16.548C20.3412 19.5865 20.3687 19.704 21.0697 20.0061C21.4133 20.1572 22.073 19.704 22.183 19.2507C22.2242 19.0325 22.2654 17.7902 22.2654 16.4641C22.2654 13.5095 22.128 13.0731 21.2209 13.0731C20.9872 13.0731 20.6986 13.2074 20.5749 13.3752Z" fill="white"/>
<path d="M9.2286 18.0294C8.98121 18.3484 8.92623 19.171 9.1049 19.5235C9.32481 19.9432 10.0532 20.0775 12.2935 20.0775C15.2073 20.0775 15.5921 19.9264 15.5921 18.8016C15.5921 17.7944 15.3997 17.7273 12.266 17.7273C9.70964 17.7273 9.43476 17.7608 9.2286 18.0294Z" fill="white"/>
</svg>
