<svg width="26" height="23" viewBox="0 0 26 23" fill="none" xmlns="http://www.w3.org/2000/svg">
<path d="M11.2878 0.117718C10.6378 0.357549 10.7624 0.251577 6.52678 4.36774C2.19365 8.58429 0.758298 9.99539 0.552474 10.252C0.43873 10.3914 0.270821 10.6647 0.173325 10.8655C0.0108328 11.2001 0 11.2615 0 11.8136C0 12.3658 0.0108328 12.4272 0.178742 12.773C0.341234 13.1132 1.00204 13.9331 1.11578 13.9331C1.14286 13.9331 1.80367 13.2861 2.58905 12.4941C3.36901 11.7077 5.0806 9.98423 6.39137 8.66238C7.70214 7.3461 9.3379 5.70075 10.0204 5.00915C10.7083 4.31754 11.4936 3.52554 11.7699 3.25225L12.2682 2.75585L12.5282 3.01242C12.669 3.15185 15.1335 5.54458 18.0096 8.32773C20.8857 11.1109 23.3718 13.5259 23.5452 13.6988L23.8485 14L24.141 13.7992C24.5526 13.5203 25.0293 12.9905 25.1863 12.6391C25.2838 12.4272 25.3217 12.2487 25.3217 12.0088C25.3217 11.4901 25.1538 11.189 24.4714 10.4639C22.7435 8.64007 14.5972 0.88183 14.0393 0.536027C13.476 0.17907 12.9831 0.0340567 12.2682 0.00616939C11.7103 -0.010563 11.6074 0.000591936 11.2878 0.117718Z" fill="white"/>
<path d="M8.14342 9.43235L3.89566 13.8593V16.9549C3.89566 18.8166 3.91641 20.1642 3.94753 20.3373C4.1498 21.4522 5.11968 22.2477 6.80011 22.6807C7.48992 22.8593 8.42868 22.9838 9.05625 22.9838H9.53859L9.55934 22.6158C9.5749 22.4155 9.58527 21.1329 9.59564 19.7691C9.60083 18.4053 9.61639 17.2634 9.63195 17.2363C9.64751 17.2147 11.0582 17.193 12.7698 17.193H15.8765V20.0938V23L16.8257 22.9675C19.2841 22.8918 20.8763 22.172 21.3224 20.9381C21.4209 20.6621 21.4261 20.5213 21.4261 17.285V13.9188L17.0902 9.61636C14.7044 7.25135 12.6764 5.24354 12.5779 5.15695L12.3964 5L8.14342 9.43235Z" fill="white"/>
</svg>
