<svg width="25" height="25" viewBox="0 0 25 25" fill="none" xmlns="http://www.w3.org/2000/svg">
<path d="M23.5686 0.0218658C23.2756 0.125521 20.3961 1.32446 20.2863 1.39356C20.1365 1.47994 20.0066 1.64233 19.9301 1.82546C19.9035 1.89111 19.7636 2.63051 19.6205 3.47357L19.3575 5.00075H17.0273C14.454 5.00075 14.5606 4.99038 14.4008 5.21842C14.3342 5.31517 14.3309 5.35663 14.3309 6.60394C14.3309 8.03092 14.3275 7.99982 14.5572 8.14494C14.6604 8.21404 14.767 8.21404 19.6505 8.21404C25.1398 8.21404 24.8003 8.22786 24.9334 7.99982C24.9967 7.88926 25 7.83052 25 6.60739C25 5.40154 24.9967 5.32208 24.9334 5.21842C24.8136 5.01457 24.8768 5.01802 22.8828 5.00075L21.0519 4.98347L21.2217 4.01603C21.3182 3.48393 21.4015 3.02094 21.4081 2.98639C21.4181 2.93802 21.7443 2.78945 22.753 2.37828C23.4887 2.07768 24.1178 1.81509 24.1578 1.79436C24.2909 1.71835 24.5007 1.43502 24.5506 1.25881C24.6837 0.78891 24.5273 0.33974 24.1511 0.108245C23.9947 0.0149555 23.7117 -0.0299616 23.5686 0.0218658Z" fill="white"/>
<path d="M7.92277 7.83742C5.67577 7.9929 3.53862 8.93616 2.13049 10.3908C1.59787 10.9402 1.27497 11.3962 0.838882 12.2047C0.469374 12.8958 0 14.1673 0 14.4817C0 14.6648 0.106525 14.841 0.266312 14.924C0.376165 14.9827 0.842211 14.9861 8.54528 14.9861C16.6112 14.9861 16.7077 14.9861 16.8609 14.917C16.9441 14.879 17.0306 14.8514 17.0473 14.8583C17.1072 14.8721 17.2104 14.6303 17.2104 14.4817C17.2104 14.3262 17.004 13.6732 16.8409 13.2966C16.7843 13.1722 16.6944 12.9372 16.6378 12.7748C16.3382 11.9076 15.8189 11.0887 15.0899 10.3528C14.5439 9.79995 14.0879 9.44752 13.3988 9.05018C11.8342 8.14493 9.84687 7.70267 7.92277 7.83742Z" fill="white"/>
<path d="M15.2131 9.20565C15.2131 9.30931 15.2663 9.3715 15.6991 9.81376C16.4248 10.5428 16.9108 11.2027 17.3735 12.0665C17.7364 12.7437 18.0992 13.7388 18.1791 14.2709C18.2424 14.6994 18.1025 15.2176 17.8329 15.5251L17.7197 15.6599L17.8263 18.7799C17.8862 20.4937 17.9394 21.9034 17.9461 21.9103C17.9527 21.9206 19.2843 21.931 20.9055 21.9345C23.2157 21.9414 23.8682 21.9345 23.9281 21.8999C23.9714 21.8757 24.0346 21.7928 24.0712 21.7133C24.1312 21.5717 24.1345 21.3747 24.1345 15.3282V9.09163L19.6738 9.08818H15.2131V9.20565Z" fill="white"/>
<path d="M1.07194 16.3716C0.682459 16.572 0.43945 17.1939 0.526001 17.7675C0.595908 18.2374 0.88885 18.6693 1.18845 18.7488C1.26834 18.7695 4.01801 18.7868 8.77166 18.7937L16.2284 18.804L16.3848 18.7108C16.6744 18.5311 16.9341 18.1337 17.014 17.7468C17.1238 17.2216 16.8709 16.5755 16.4747 16.3682C16.3482 16.2991 16.2284 16.2991 8.78165 16.2991H1.21508L1.07194 16.3716Z" fill="white"/>
<path d="M2.3701 19.4813C1.4247 19.6437 0.685684 20.3693 0.569173 21.2434L0.542542 21.4473H1.1717C1.64441 21.4473 1.80419 21.4369 1.81085 21.4023C1.81751 21.3816 1.84414 21.2849 1.86411 21.195C1.89407 21.0879 1.95732 20.9705 2.05053 20.8633C2.39008 20.4695 2.97929 20.4107 3.41871 20.7251C3.57849 20.8426 3.74494 21.1121 3.77823 21.316L3.80153 21.4473H4.74694H5.69234V21.3436C5.69234 21.0879 5.94201 20.7493 6.23495 20.6146C6.46797 20.504 6.86744 20.504 7.10046 20.6111C7.3235 20.7148 7.54321 20.9635 7.60646 21.1812C7.63309 21.278 7.65639 21.3782 7.65639 21.4023C7.65639 21.4369 7.84281 21.4473 8.60512 21.4473H9.55386V21.3505C9.55386 21.0983 9.81684 20.7459 10.0998 20.6146C10.6824 20.3485 11.418 20.7044 11.5046 21.2918L11.5246 21.4473H12.4666H13.4054L13.4287 21.3056C13.4753 21.005 13.675 20.7493 13.978 20.6042C14.0911 20.5524 14.201 20.5351 14.3974 20.5316C14.6238 20.5316 14.6937 20.5455 14.8535 20.6284C15.0931 20.7493 15.2895 20.9774 15.3461 21.195C15.3661 21.2883 15.3927 21.3816 15.3994 21.4023C15.4061 21.4369 15.5625 21.4473 16.0286 21.4473H16.6444V21.2987C16.6411 21.1087 16.5246 20.7528 16.3781 20.5005C16.1351 20.0825 15.5625 19.6679 15.0299 19.5296C14.4041 19.3638 13.685 19.4675 13.1591 19.7957C12.9693 19.9097 12.6364 20.2241 12.5432 20.3693L12.4899 20.4487L12.2136 20.1619C11.9074 19.8441 11.5678 19.6402 11.1517 19.5262C10.8555 19.4433 10.2163 19.4433 9.92004 19.5262C9.46065 19.654 9.00126 19.9581 8.73828 20.3071L8.60512 20.4798L8.54188 20.3865C8.42869 20.2172 8.12576 19.9339 7.9227 19.8061C7.51991 19.5538 6.98062 19.4191 6.50792 19.4571C5.88875 19.5055 5.4227 19.7231 4.9966 20.1619L4.7203 20.4487L4.66704 20.3693C4.56718 20.2138 4.25093 19.9235 4.03122 19.7888C3.55519 19.4986 2.93935 19.3845 2.3701 19.4813Z" fill="white"/>
<path d="M0.625708 22.1521C0.269516 22.2523 0.0298356 22.5253 0.00653332 22.8639C-0.0134401 23.1438 0.0431512 23.2509 0.575775 23.9246C0.815455 24.2356 1.06179 24.5535 1.11506 24.6329C1.2349 24.8057 1.39135 24.9232 1.56446 24.9715C1.64768 24.9957 4.06446 25.0026 8.67498 24.9992L15.6623 24.9888L15.7955 24.9128C15.9519 24.8264 16.0651 24.7089 16.2183 24.4705C16.2815 24.3738 16.5112 24.0697 16.7342 23.7899C17.147 23.2681 17.2103 23.1541 17.2103 22.8846C17.2103 22.5806 16.8907 22.2212 16.5445 22.1418C16.3048 22.083 0.828771 22.0968 0.625708 22.1521Z" fill="white"/>
</svg>
